<?xml version="1.0" encoding="UTF-8" standalone="no"?>
<!-- Created with Inkscape (http://www.inkscape.org/) -->
<svg xmlns:svg="http://www.w3.org/2000/svg" xmlns="http://www.w3.org/2000/svg" version="1.0" width="270" height="156" id="svg5912">
  <defs id="defs5914"/>
  <g transform="translate(-196.42856,-537.21936)" id="layer1">
    
    <path d="M 213.16629,592.65625 C 213.70059,603.46327 224.29367,611.78507 247.66629,611.53125 L 304.32254,611.53125 C 325.39134,611.53125 328.96584,619.37293 331.63504,625.28125 C 334.30424,619.37293 337.87874,611.53125 358.94754,611.53125 L 415.60379,611.53125 C 438.97641,611.78507 449.56949,603.46327 450.10379,592.65625 C 446.25674,600.01886 441.59313,608.65625 420.32254,608.65625 L 356.69754,608.65625 C 339.80045,608.65626 334.01615,615.31507 331.63504,618.3125 C 329.25393,615.31507 323.46963,608.65626 306.57254,608.65625 L 242.94754,608.65625 C 221.67695,608.65625 217.01335,600.01886 213.16629,592.65625 z " style="fill:#007e00;fill-opacity:1;fill-rule:evenodd;stroke:none;stroke-width:1px;stroke-linecap:butt;stroke-linejoin:miter;stroke-opacity:0" id="path5937"/>
    <path d="M 16.21875,39.5 L 15.34375,40.40625 L 11.375,44.375 L 10.5,45.25 L 11.375,46.15625 L 15.34375,50.125 L 16.21875,51 L 17.125,50.125 L 20.75,46.5 L 158.90625,46.5 L 162.5625,50.125 L 163.4375,51 L 163.4375,47.46875 L 161.25,45.25 L 163.4375,43.0625 L 163.4375,39.5 L 162.5625,40.40625 L 158.90625,44.0625 L 158.90625,44 L 20.71875,44 L 17.125,40.40625 L 16.21875,39.5 z M 16.21875,43.0625 L 18.4375,45.25 L 16.21875,47.46875 L 14.03125,45.25 L 16.21875,43.0625 z " transform="translate(196.42856,537.21936)" style="fill:#0000ff;fill-opacity:1;stroke:none;stroke-width:2.5;stroke-linecap:square;stroke-linejoin:miter;stroke-miterlimit:4;stroke-dasharray:none;stroke-dashoffset:0;stroke-opacity:1" id="rect5942"/>
    <path d="M 163.4375,39.5 L 163.4375,43.0625 L 165.65625,45.25 L 163.4375,47.46875 L 163.4375,51 L 164.34375,50.125 L 167.96875,46.5 L 249.25,46.5 L 252.90625,50.125 L 253.78125,51 L 254.65625,50.125 L 258.625,46.15625 L 259.53125,45.25 L 258.625,44.375 L 254.65625,40.40625 L 253.78125,39.5 L 252.90625,40.40625 L 249.28125,44 L 167.9375,44 L 164.34375,40.40625 L 163.4375,39.5 z M 253.78125,43.0625 L 256,45.25 L 253.78125,47.46875 L 251.5625,45.25 L 253.78125,43.0625 z " transform="translate(196.42856,537.21936)" style="fill:#ff0000;fill-opacity:1;stroke:none;stroke-width:2.5;stroke-linecap:square;stroke-linejoin:miter;stroke-miterlimit:4;stroke-dasharray:none;stroke-dashoffset:0;stroke-opacity:1" id="rect5946"/>
    <path d="M 290.78441,555.28985 L 292.46242,554.08606 L 293.62973,554.37789 L 290.94856,565.94155 C 290.68104,567.09671 290.54729,567.99651 290.5473,568.64096 C 290.54729,569.12734 290.62632,569.47997 290.78441,569.69884 C 290.94247,569.91771 291.19174,570.02714 291.53222,570.02714 C 291.89699,570.02714 292.28609,569.87819 292.69953,569.58028 C 293.11293,569.28238 293.69659,568.71392 294.4505,567.87491 L 295.49013,568.89631 C 294.39576,570.06362 293.46252,570.89351 292.69041,571.38596 C 291.91827,571.87842 291.0823,572.12465 290.18252,572.12465 C 289.42861,572.12465 288.82672,571.87538 288.37683,571.37684 C 287.92692,570.87831 287.70197,570.21561 287.70198,569.38877 C 287.70197,568.72 287.8418,568.00867 288.12148,567.25478 L 287.88437,567.18182 C 286.71705,568.88415 285.61054,570.1305 284.56484,570.92086 C 283.51911,571.71123 282.4126,572.10641 281.2453,572.10641 C 279.90775,572.10641 278.87115,571.60179 278.13551,570.59256 C 277.39986,569.58332 277.03203,568.16674 277.03203,566.34282 C 277.03203,564.25139 277.44242,562.24204 278.26318,560.31475 C 279.08394,558.38749 280.21173,556.86755 281.64656,555.75495 C 283.08137,554.64237 284.68034,554.08608 286.44348,554.08606 C 287.23383,554.08608 287.97252,554.17423 288.65954,554.35053 C 289.34654,554.52686 290.05483,554.83996 290.78441,555.28985 L 290.78441,555.28985 z M 289.17936,560.72514 C 289.28878,560.22661 289.36174,559.79495 289.39823,559.43015 C 289.43469,559.06538 289.45293,558.6702 289.45295,558.2446 C 289.45293,557.30834 289.2523,556.62133 288.85105,556.18357 C 288.44978,555.74584 287.76885,555.52697 286.80826,555.52696 C 285.55582,555.52697 284.43107,556.03159 283.434,557.04081 C 282.43692,558.05006 281.65871,559.4028 281.09938,561.09904 C 280.54004,562.7953 280.26037,564.4885 280.26038,566.17866 C 280.26037,567.44326 280.43365,568.38865 280.7802,569.01486 C 281.12674,569.64108 281.70735,569.95419 282.52204,569.95418 C 283.32456,569.95419 284.11189,569.60764 284.88402,568.91455 C 285.65614,568.22146 286.45258,567.2335 287.27336,565.95067 C 288.09411,564.66786 288.67473,563.18744 289.01521,561.50942 L 289.17936,560.72514 z " style="font-size:37.35393524px;font-style:normal;text-align:center;text-anchor:middle;fill:#0000ff;fill-opacity:1;stroke:none;stroke-width:1px;stroke-linecap:butt;stroke-linejoin:miter;stroke-opacity:1;font-family:Gill Sans MT" id="text5964"/>
    <path d="M 399.6201,570.9391 L 397.94209,572.12465 L 396.77478,571.83282 L 401.49874,550.98539 C 401.7784,549.74514 401.91824,548.84534 401.91824,548.28598 C 401.91824,547.77531 401.7632,547.4166 401.45314,547.20987 C 401.14307,547.00318 400.58677,546.88767 399.78425,546.86332 L 400.00312,545.91488 L 404.61765,545.75073 L 405.67552,545.75073 L 402.46542,558.51819 L 402.70253,558.59115 C 403.88199,557.01043 404.9885,555.86744 406.02207,555.16217 C 407.05561,554.45694 408.08917,554.10431 409.12274,554.1043 C 410.44811,554.10431 411.47862,554.60893 412.21429,555.61815 C 412.94992,556.62741 413.31774,558.05006 413.31776,559.88613 C 413.31774,561.89246 412.91344,563.86533 412.10485,565.80476 C 411.29623,567.7442 410.17452,569.28238 408.73971,570.41928 C 407.30488,571.5562 405.69983,572.12465 403.92456,572.12465 C 402.30734,572.12465 400.87252,571.72947 399.6201,570.9391 L 399.6201,570.9391 z M 401.22515,565.48557 C 401.04275,566.33674 400.95156,567.16359 400.95156,567.96611 C 400.95156,568.92671 401.16131,569.6198 401.58082,570.04538 C 402.00031,570.47096 402.69644,570.68375 403.66921,570.68375 C 404.16774,570.68375 404.64196,570.60168 405.09187,570.43752 C 405.54176,570.27337 406.00078,570.00282 406.46893,569.62588 C 406.93706,569.24894 407.38088,568.75344 407.80039,568.13938 C 408.21988,567.52533 408.60595,566.7684 408.95858,565.8686 C 409.3112,564.9688 409.58478,564.00516 409.77935,562.97768 C 409.97389,561.95021 410.07116,560.96834 410.07118,560.03205 C 410.07116,558.76747 409.89181,557.81903 409.53312,557.18673 C 409.1744,556.55445 408.59987,556.2383 407.80951,556.23829 C 407.22585,556.2383 406.65131,556.42373 406.08591,556.79458 C 405.52048,557.16546 404.89123,557.77951 404.19815,558.63674 C 403.50505,559.494 402.93963,560.37252 402.5019,561.27231 C 402.06415,562.17212 401.69329,563.32119 401.38931,564.71953 L 401.22515,565.48557 z " style="font-size:37.35393524px;font-style:normal;text-align:center;text-anchor:middle;fill:#ff0000;fill-opacity:1;stroke:none;stroke-width:1px;stroke-linecap:butt;stroke-linejoin:miter;stroke-opacity:1;font-family:Gill Sans MT" id="text5968"/>
    <path d="M 312.86688,635.3659 L 314.54489,634.16211 L 315.7122,634.45394 L 313.03103,646.0176 C 312.76351,647.17276 312.62975,648.07256 312.62977,648.71701 C 312.62975,649.20339 312.70879,649.55602 312.86688,649.77489 C 313.02493,649.99376 313.2742,650.10319 313.61468,650.10319 C 313.97945,650.10319 314.36856,649.95424 314.782,649.65633 C 315.1954,649.35843 315.77905,648.78997 316.53296,647.95096 L 317.5726,648.97236 C 316.47822,650.13967 315.54498,650.96956 314.77288,651.46201 C 314.00073,651.95447 313.16477,652.2007 312.26498,652.2007 C 311.51108,652.2007 310.90919,651.95143 310.4593,651.45289 C 310.00938,650.95436 309.78443,650.29166 309.78445,649.46482 C 309.78443,648.79605 309.92427,648.08472 310.20395,647.33083 L 309.96684,647.25787 C 308.79952,648.9602 307.69301,650.20655 306.6473,650.99691 C 305.60158,651.78728 304.49506,652.18246 303.32776,652.18246 C 301.99021,652.18246 300.95362,651.67784 300.21797,650.66861 C 299.48232,649.65937 299.1145,648.24279 299.1145,646.41887 C 299.1145,644.32744 299.52488,642.31809 300.34565,640.3908 C 301.16641,638.46354 302.2942,636.9436 303.72902,635.831 C 305.16384,634.71842 306.76281,634.16213 308.52594,634.16211 C 309.3163,634.16213 310.05498,634.25028 310.74201,634.42658 C 311.429,634.60291 312.13729,634.91601 312.86688,635.3659 L 312.86688,635.3659 z M 311.26182,640.80119 C 311.37125,640.30266 311.4442,639.871 311.4807,639.5062 C 311.51716,639.14143 311.5354,638.74625 311.53541,638.32065 C 311.5354,637.38439 311.33477,636.69738 310.93352,636.25962 C 310.53224,635.82189 309.85131,635.60302 308.89073,635.60301 C 307.63829,635.60302 306.51354,636.10764 305.51647,637.11686 C 304.51938,638.12611 303.74118,639.47885 303.18185,641.17509 C 302.62251,642.87135 302.34284,644.56455 302.34284,646.25471 C 302.34284,647.51931 302.51611,648.4647 302.86266,649.09091 C 303.2092,649.71713 303.78982,650.03024 304.60451,650.03023 C 305.40702,650.03024 306.19435,649.68369 306.96649,648.9906 C 307.7386,648.29751 308.53505,647.30955 309.35583,646.02672 C 310.17658,644.74391 310.75719,643.26349 311.09767,641.58547 L 311.26182,640.80119 z M 333.24009,642.44272 L 333.24009,652.94851 L 330.65012,652.94851 L 330.65012,642.44272 L 320.70974,642.44272 L 320.70974,640.0169 L 330.65012,640.0169 L 330.65012,629.5111 L 333.24009,629.5111 L 333.24009,640.0169 L 343.18047,640.0169 L 343.18047,642.44272 L 333.24009,642.44272 z M 350.45792,651.01515 L 348.77991,652.2007 L 347.6126,651.90887 L 352.33656,631.06144 C 352.61623,629.82119 352.75606,628.92139 352.75607,628.36203 C 352.75606,627.85136 352.60103,627.49265 352.29097,627.28592 C 351.98089,627.07923 351.4246,626.96372 350.62208,626.93937 L 350.84095,625.99093 L 355.45547,625.82678 L 356.51335,625.82678 L 353.30324,638.59424 L 353.54035,638.6672 C 354.71981,637.08648 355.82633,635.94349 356.85989,635.23822 C 357.89344,634.53299 358.92699,634.18036 359.96056,634.18035 C 361.28593,634.18036 362.31644,634.68498 363.05211,635.6942 C 363.78774,636.70345 364.15556,638.12611 364.15558,639.96218 C 364.15556,641.96851 363.75126,643.94138 362.94267,645.88081 C 362.13405,647.82025 361.01234,649.35843 359.57754,650.49533 C 358.14271,651.63225 356.53766,652.2007 354.76238,652.2007 C 353.14516,652.2007 351.71034,651.80552 350.45792,651.01515 L 350.45792,651.01515 z M 352.06298,645.56162 C 351.88058,646.41279 351.78938,647.23964 351.78939,648.04216 C 351.78938,649.00276 351.99913,649.69585 352.41864,650.12143 C 352.83814,650.54701 353.53427,650.7598 354.50703,650.7598 C 355.00556,650.7598 355.47978,650.67773 355.92969,650.51357 C 356.37958,650.34942 356.8386,650.07887 357.30675,649.70193 C 357.77488,649.32499 358.2187,648.82949 358.63822,648.21543 C 359.05771,647.60138 359.44377,646.84445 359.79641,645.94465 C 360.14902,645.04485 360.42261,644.08121 360.61717,643.05373 C 360.81171,642.02626 360.90899,641.04439 360.909,640.1081 C 360.90899,638.84352 360.72963,637.89508 360.37094,637.26278 C 360.01222,636.6305 359.43769,636.31435 358.64734,636.31434 C 358.06367,636.31435 357.48913,636.49978 356.92373,636.87063 C 356.3583,637.24151 355.72905,637.85556 355.03597,638.71279 C 354.34287,639.57005 353.77745,640.44857 353.33972,641.34836 C 352.90197,642.24817 352.53111,643.39724 352.22713,644.79558 L 352.06298,645.56162 z " style="font-size:37.35393524px;font-style:normal;text-align:center;text-anchor:middle;fill:#007e00;fill-opacity:1;stroke:none;stroke-width:1px;stroke-linecap:butt;stroke-linejoin:miter;stroke-opacity:1;font-family:Gill Sans MT" id="text5972"/>
    <path d="M 228.42651,672.21513 L 229.50747,671.43966 L 230.25944,671.62766 L 228.53226,679.07685 C 228.35992,679.82099 228.27376,680.40063 228.27377,680.81578 C 228.27376,681.1291 228.32467,681.35626 228.42651,681.49725 C 228.52833,681.63825 228.68891,681.70875 228.90824,681.70875 C 229.14322,681.70875 229.39388,681.61279 229.66021,681.42088 C 229.92652,681.22898 230.30251,680.86278 230.78817,680.3223 L 231.45789,680.98028 C 230.7529,681.73225 230.15172,682.26685 229.65434,682.58408 C 229.15693,682.90132 228.61841,683.05994 228.03878,683.05994 C 227.55312,683.05994 227.16539,682.89936 226.87557,682.57821 C 226.58574,682.25706 226.44083,681.83016 226.44084,681.29751 C 226.44083,680.8667 226.53091,680.40847 226.71108,679.92282 L 226.55834,679.87582 C 225.80636,680.97244 225.09356,681.77533 224.41992,682.28447 C 223.74628,682.79362 223.03348,683.04819 222.28151,683.04819 C 221.41988,683.04819 220.75211,682.72312 220.27822,682.07298 C 219.80432,681.42284 219.56737,680.5103 219.56737,679.33534 C 219.56737,677.98807 219.83173,676.69366 220.36046,675.45213 C 220.88919,674.2106 221.6157,673.23148 222.54,672.51474 C 223.46429,671.79803 224.49433,671.43967 225.63013,671.43966 C 226.13926,671.43967 226.61512,671.49646 227.05769,671.61003 C 227.50025,671.72362 227.95652,671.92532 228.42651,672.21513 L 228.42651,672.21513 z M 227.39255,675.71649 C 227.46304,675.39534 227.51004,675.11727 227.53355,674.88227 C 227.55704,674.64729 227.56879,674.39272 227.5688,674.11855 C 227.56879,673.51542 227.43954,673.07286 227.18106,672.79086 C 226.92256,672.50888 226.48392,672.36789 225.86512,672.36788 C 225.05831,672.36789 224.33376,672.69296 223.69145,673.34309 C 223.04914,673.99324 222.54783,674.86466 222.18752,675.95735 C 221.82719,677.05007 221.64703,678.14081 221.64704,679.2296 C 221.64703,680.04423 221.75865,680.65325 221.9819,681.05665 C 222.20514,681.46005 222.57916,681.66175 223.10398,681.66175 C 223.62095,681.66175 224.12814,681.43851 224.62554,680.99202 C 225.12293,680.54555 225.63599,679.90911 226.16473,679.08273 C 226.69345,678.25635 227.06747,677.30268 227.28681,676.22172 L 227.39255,675.71649 z M 241.55073,676.77395 L 241.55073,683.54167 L 239.8823,683.54167 L 239.8823,676.77395 L 233.47881,676.77395 L 233.47881,675.21126 L 239.8823,675.21126 L 239.8823,668.44354 L 241.55073,668.44354 L 241.55073,675.21126 L 247.95422,675.21126 L 247.95422,676.77395 L 241.55073,676.77395 z M 252.64228,682.29622 L 251.56132,683.05994 L 250.80935,682.87195 L 253.85248,669.44224 C 254.03263,668.64329 254.12271,668.06365 254.12272,667.70332 C 254.12271,667.37434 254.02284,667.14327 253.8231,667.01009 C 253.62336,666.87695 253.265,666.80253 252.74802,666.78685 L 252.88902,666.17588 L 255.86164,666.07013 L 256.54312,666.07013 L 254.4752,674.2948 L 254.62794,674.3418 C 255.38774,673.32351 256.10055,672.58721 256.76636,672.13289 C 257.43216,671.67858 258.09796,671.45142 258.76378,671.45141 C 259.61757,671.45142 260.28141,671.77649 260.75532,672.42662 C 261.22921,673.07677 261.46615,673.99324 261.46617,675.17601 C 261.46615,676.46847 261.20571,677.73937 260.68482,678.98873 C 260.16392,680.2381 259.44132,681.22898 258.51704,681.96136 C 257.59273,682.69375 256.55878,683.05994 255.41516,683.05994 C 254.37337,683.05994 253.44907,682.80537 252.64228,682.29622 L 252.64228,682.29622 z M 253.67623,678.78311 C 253.55873,679.33143 253.49999,679.86407 253.49999,680.38105 C 253.49999,680.99986 253.63511,681.44634 253.90535,681.7205 C 254.17558,681.99465 254.62402,682.13173 255.25067,682.13173 C 255.57182,682.13173 255.8773,682.07886 256.16713,681.97311 C 256.45695,681.86737 256.75264,681.69308 257.05422,681.45026 C 257.35578,681.20743 257.64169,680.88824 257.91194,680.49267 C 258.18217,680.09711 258.43086,679.6095 258.65803,679.02985 C 258.88518,678.45022 259.06142,677.82945 259.18676,677.16756 C 259.31208,676.50567 259.37474,675.87316 259.37475,675.27001 C 259.37474,674.45538 259.25921,673.84441 259.02814,673.43708 C 258.79706,673.02978 258.42695,672.82612 257.91781,672.82611 C 257.54182,672.82612 257.17171,672.94557 256.80748,673.18447 C 256.44324,673.42338 256.03788,673.81895 255.59141,674.37117 C 255.14492,674.9234 254.78068,675.48934 254.4987,676.06898 C 254.21671,676.64862 253.9778,677.38884 253.78198,678.28963 L 253.67623,678.78311 z " style="font-size:24.06302071px;font-style:normal;text-align:center;text-anchor:middle;fill:#007e00;fill-opacity:1;stroke:none;stroke-width:1px;stroke-linecap:butt;stroke-linejoin:miter;stroke-opacity:1;font-family:Gill Sans MT" id="text5976"/>
    <switch style="font-size:24.06302071px;font-style:normal;text-align:center;text-anchor:middle;fill:#000000;fill-opacity:1;stroke:none;stroke-width:1px;stroke-linecap:butt;stroke-linejoin:miter;stroke-opacity:1;font-family:Gill Sans MT"><text x="288.6839" y="682.87195" style="font-size:24.06302071px;font-style:normal;text-align:center;text-anchor:middle;fill:#000000;fill-opacity:1;stroke:none;stroke-width:1px;stroke-linecap:butt;stroke-linejoin:miter;stroke-opacity:1;font-family:Gill Sans MT" id="text5980-hi" xml:space="preserve" systemLanguage="hi"><tspan x="288.6839" y="682.87195" style="font-weight:normal;fill:#000000;fill-opacity:1;font-family:Arial" id="tspan5982-hi">;</tspan></text><text x="288.6839" y="682.87195" style="font-size:24.06302071px;font-style:normal;text-align:center;text-anchor:middle;fill:#000000;fill-opacity:1;stroke:none;stroke-width:1px;stroke-linecap:butt;stroke-linejoin:miter;stroke-opacity:1;font-family:Gill Sans MT" id="text5980" xml:space="preserve"><tspan x="288.6839" y="682.87195" style="font-weight:normal;fill:#000000;fill-opacity:1;font-family:Arial" id="tspan5982">is to</tspan></text></switch>
    <path d="M 325.45396,672.21513 L 326.53492,671.43966 L 327.28689,671.62766 L 325.55971,679.07685 C 325.38737,679.82099 325.30121,680.40063 325.30122,680.81578 C 325.30121,681.1291 325.35212,681.35626 325.45396,681.49725 C 325.55578,681.63825 325.71636,681.70875 325.93569,681.70875 C 326.17067,681.70875 326.42133,681.61279 326.68766,681.42088 C 326.95397,681.22898 327.32996,680.86278 327.81562,680.3223 L 328.48534,680.98028 C 327.78035,681.73225 327.17917,682.26685 326.68179,682.58408 C 326.18438,682.90132 325.64586,683.05994 325.06623,683.05994 C 324.58057,683.05994 324.19284,682.89936 323.90302,682.57821 C 323.61319,682.25706 323.46828,681.83016 323.46829,681.29751 C 323.46828,680.8667 323.55836,680.40847 323.73853,679.92282 L 323.58579,679.87582 C 322.83381,680.97244 322.12101,681.77533 321.44737,682.28447 C 320.77373,682.79362 320.06093,683.04819 319.30896,683.04819 C 318.44733,683.04819 317.77956,682.72312 317.30567,682.07298 C 316.83177,681.42284 316.59482,680.5103 316.59482,679.33534 C 316.59482,677.98807 316.85918,676.69366 317.38791,675.45213 C 317.91664,674.2106 318.64315,673.23148 319.56745,672.51474 C 320.49174,671.79803 321.52178,671.43967 322.65758,671.43966 C 323.16671,671.43967 323.64257,671.49646 324.08514,671.61003 C 324.5277,671.72362 324.98397,671.92532 325.45396,672.21513 L 325.45396,672.21513 z M 324.42,675.71649 C 324.49049,675.39534 324.53749,675.11727 324.561,674.88227 C 324.58449,674.64729 324.59624,674.39272 324.59625,674.11855 C 324.59624,673.51542 324.46699,673.07286 324.20851,672.79086 C 323.95001,672.50888 323.51137,672.36789 322.89257,672.36788 C 322.08576,672.36789 321.36121,672.69296 320.7189,673.34309 C 320.07659,673.99324 319.57528,674.86466 319.21497,675.95735 C 318.85464,677.05007 318.67448,678.14081 318.67449,679.2296 C 318.67448,680.04423 318.7861,680.65325 319.00935,681.05665 C 319.23259,681.46005 319.60661,681.66175 320.13143,681.66175 C 320.6484,681.66175 321.15559,681.43851 321.65299,680.99202 C 322.15038,680.54555 322.66344,679.90911 323.19218,679.08273 C 323.7209,678.25635 324.09492,677.30268 324.31426,676.22172 L 324.42,675.71649 z " style="font-size:24.06302071px;font-style:normal;text-align:center;text-anchor:middle;fill:#0000ff;fill-opacity:1;stroke:none;stroke-width:1px;stroke-linecap:butt;stroke-linejoin:miter;stroke-opacity:1;font-family:Gill Sans MT" id="text5984"/>
    <switch style="font-size:24.06302071px;font-style:normal;text-align:center;text-anchor:middle;fill:#000000;fill-opacity:1;stroke:none;stroke-width:1px;stroke-linecap:butt;stroke-linejoin:miter;stroke-opacity:1;font-family:Gill Sans MT"><text x="347.07892" y="682.87195" style="font-size:24.06302071px;font-style:normal;text-align:center;text-anchor:middle;fill:#000000;fill-opacity:1;stroke:none;stroke-width:1px;stroke-linecap:butt;stroke-linejoin:miter;stroke-opacity:1;font-family:Gill Sans MT" id="text5988-hi" xml:space="preserve" systemLanguage="hi"><tspan x="347.07892" y="682.87195" style="font-weight:normal;fill:#000000;fill-opacity:1;font-family:Arial" id="tspan5990-hi">::</tspan></text><text x="347.07892" y="682.87195" style="font-size:24.06302071px;font-style:normal;text-align:center;text-anchor:middle;fill:#000000;fill-opacity:1;stroke:none;stroke-width:1px;stroke-linecap:butt;stroke-linejoin:miter;stroke-opacity:1;font-family:Gill Sans MT" id="text5988" xml:space="preserve"><tspan x="347.07892" y="682.87195" style="font-weight:normal;fill:#000000;fill-opacity:1;font-family:Arial" id="tspan5990">as</tspan></text></switch>
    <path d="M 374.47288,672.21513 L 375.55384,671.43966 L 376.30581,671.62766 L 374.57863,679.07685 C 374.40629,679.82099 374.32013,680.40063 374.32014,680.81578 C 374.32013,681.1291 374.37104,681.35626 374.47288,681.49725 C 374.5747,681.63825 374.73528,681.70875 374.95461,681.70875 C 375.18959,681.70875 375.44025,681.61279 375.70658,681.42088 C 375.97289,681.22898 376.34888,680.86278 376.83454,680.3223 L 377.50426,680.98028 C 376.79928,681.73225 376.19809,682.26685 375.70071,682.58408 C 375.2033,682.90132 374.66478,683.05994 374.08515,683.05994 C 373.59949,683.05994 373.21176,682.89936 372.92195,682.57821 C 372.63212,682.25706 372.48721,681.83016 372.48721,681.29751 C 372.48721,680.8667 372.57728,680.40847 372.75745,679.92282 L 372.60471,679.87582 C 371.85273,680.97244 371.13993,681.77533 370.4663,682.28447 C 369.79265,682.79362 369.07985,683.04819 368.32788,683.04819 C 367.46625,683.04819 366.79848,682.72312 366.32459,682.07298 C 365.85069,681.42284 365.61374,680.5103 365.61374,679.33534 C 365.61374,677.98807 365.87811,676.69366 366.40684,675.45213 C 366.93556,674.2106 367.66207,673.23148 368.58637,672.51474 C 369.51066,671.79803 370.5407,671.43967 371.6765,671.43966 C 372.18563,671.43967 372.66149,671.49646 373.10406,671.61003 C 373.54662,671.72362 374.00289,671.92532 374.47288,672.21513 L 374.47288,672.21513 z M 373.43892,675.71649 C 373.50941,675.39534 373.55641,675.11727 373.57992,674.88227 C 373.60341,674.64729 373.61516,674.39272 373.61517,674.11855 C 373.61516,673.51542 373.48591,673.07286 373.22743,672.79086 C 372.96893,672.50888 372.53029,672.36789 371.91149,672.36788 C 371.10468,672.36789 370.38013,672.69296 369.73783,673.34309 C 369.09551,673.99324 368.5942,674.86466 368.23389,675.95735 C 367.87356,677.05007 367.6934,678.14081 367.69341,679.2296 C 367.6934,680.04423 367.80503,680.65325 368.02827,681.05665 C 368.25151,681.46005 368.62553,681.66175 369.15035,681.66175 C 369.66732,681.66175 370.17451,681.43851 370.67191,680.99202 C 371.1693,680.54555 371.68236,679.90911 372.2111,679.08273 C 372.73982,678.25635 373.11385,677.30268 373.33318,676.22172 L 373.43892,675.71649 z " style="font-size:24.06302071px;font-style:normal;text-align:center;text-anchor:middle;fill:#0000ff;fill-opacity:1;stroke:none;stroke-width:1px;stroke-linecap:butt;stroke-linejoin:miter;stroke-opacity:1;font-family:Gill Sans MT" id="text5992"/>
    <path d="M 434.46587,682.0909 L 433.38491,682.85462 L 432.63294,682.66663 L 435.67607,669.23692 C 435.85622,668.43797 435.9463,667.85833 435.9463,667.49799 C 435.9463,667.16902 435.84643,666.93795 435.64669,666.80477 C 435.44695,666.67163 435.08859,666.59721 434.57161,666.58153 L 434.71261,665.97056 L 437.68523,665.86481 L 438.36671,665.86481 L 436.29879,674.08948 L 436.45153,674.13647 C 437.21133,673.11819 437.92413,672.38189 438.58995,671.92756 C 439.25575,671.47326 439.92155,671.2461 440.58737,671.24609 C 441.44115,671.2461 442.105,671.57117 442.57891,672.2213 C 443.0528,672.87145 443.28974,673.78791 443.28976,674.97069 C 443.28974,676.26314 443.0293,677.53405 442.50841,678.78341 C 441.98751,680.03278 441.26491,681.02365 440.34063,681.75604 C 439.41632,682.48843 438.38237,682.85462 437.23875,682.85462 C 436.19696,682.85462 435.27266,682.60005 434.46587,682.0909 L 434.46587,682.0909 z M 435.49982,678.57779 C 435.38232,679.12611 435.32358,679.65875 435.32358,680.17573 C 435.32358,680.79454 435.4587,681.24102 435.72894,681.51517 C 435.99917,681.78933 436.44761,681.92641 437.07426,681.92641 C 437.39541,681.92641 437.70089,681.87353 437.99072,681.76779 C 438.28054,681.66204 438.57623,681.48776 438.87781,681.24493 C 439.17937,681.00211 439.46528,680.68292 439.73553,680.28735 C 440.00576,679.89178 440.25445,679.40418 440.48162,678.82453 C 440.70877,678.24489 440.88501,677.62413 441.01035,676.96223 C 441.13567,676.30035 441.19833,675.66783 441.19834,675.06469 C 441.19833,674.25006 441.08279,673.63909 440.85173,673.23176 C 440.62065,672.82445 440.25054,672.62079 439.7414,672.62078 C 439.36541,672.62079 438.9953,672.74025 438.63107,672.97915 C 438.26683,673.21806 437.86147,673.61363 437.415,674.16585 C 436.96851,674.71808 436.60427,675.28402 436.32229,675.86365 C 436.0403,676.4433 435.80139,677.18352 435.60557,678.08431 L 435.49982,678.57779 z " style="font-size:24.06302071px;font-style:normal;text-align:center;text-anchor:middle;fill:#ff0000;fill-opacity:1;stroke:none;stroke-width:1px;stroke-linecap:butt;stroke-linejoin:miter;stroke-opacity:1;font-family:Gill Sans MT" id="text5996"/>
    <switch style="font-size:24.06302071px;font-style:normal;text-align:center;text-anchor:middle;fill:#000000;fill-opacity:1;stroke:none;stroke-width:1px;stroke-linecap:butt;stroke-linejoin:miter;stroke-opacity:1;font-family:Gill Sans MT"><text x="404.72198" y="682.87195" style="font-size:24.06302071px;font-style:normal;text-align:center;text-anchor:middle;fill:#000000;fill-opacity:1;stroke:none;stroke-width:1px;stroke-linecap:butt;stroke-linejoin:miter;stroke-opacity:1;font-family:Gill Sans MT" id="text6000-hi" xml:space="preserve" systemLanguage="hi"><tspan x="404.72198" y="682.87195" style="font-weight:normal;fill:#000000;fill-opacity:1;font-family:Arial" id="tspan6002-hi">:</tspan></text><text x="404.72198" y="682.87195" style="font-size:24.06302071px;font-style:normal;text-align:center;text-anchor:middle;fill:#000000;fill-opacity:1;stroke:none;stroke-width:1px;stroke-linecap:butt;stroke-linejoin:miter;stroke-opacity:1;font-family:Gill Sans MT" id="text6000" xml:space="preserve"><tspan x="404.72198" y="682.87195" style="font-weight:normal;fill:#000000;fill-opacity:1;font-family:Arial" id="tspan6002">is to</tspan></text></switch>
  </g>
</svg>
